<?xml version="1.0" encoding="UTF-8" standalone="no"?>
<!-- Created with Inkscape (http://www.inkscape.org/) -->

<svg
   version="1.1"
   id="svg2"
   width="1122.52"
   height="793.70135"
   viewBox="0 0 1122.52 793.70135"
   sodipodi:docname="unix.ai"
   xmlns:inkscape="http://www.inkscape.org/namespaces/inkscape"
   xmlns:sodipodi="http://sodipodi.sourceforge.net/DTD/sodipodi-0.dtd"
   xmlns="http://www.w3.org/2000/svg"
   xmlns:svg="http://www.w3.org/2000/svg">
  <defs
     id="defs6">
    <clipPath
       clipPathUnits="userSpaceOnUse"
       id="clipPath16">
      <path
         d="M 0,595.276 H 841.89 V 0 H 0 Z"
         id="path14" />
    </clipPath>
  </defs>
  <sodipodi:namedview
     id="namedview4"
     pagecolor="#ffffff"
     bordercolor="#000000"
     borderopacity="0.25"
     inkscape:showpageshadow="2"
     inkscape:pageopacity="0.0"
     inkscape:pagecheckerboard="0"
     inkscape:deskcolor="#d1d1d1" />
  <g
     id="g8"
     inkscape:groupmode="layer"
     inkscape:label="unix"
     transform="matrix(1.3333333,0,0,-1.3333333,0,793.70133)">
    <g
       id="g10">
      <g
         id="g12"
         clip-path="url(#clipPath16)">
        <path
           d="m 220.197,335.396 h 29.467 v -56.642 c 0,-5.114 1.176,-9.045 3.142,-11.008 2.354,-2.362 6.288,-3.151 11.003,-3.151 5.102,0 8.64,0.789 10.606,3.151 2.355,1.963 3.531,5.894 3.531,11.008 v 56.642 h 29.861 v -59 c 0,-11.407 -3.931,-20.851 -11.396,-26.75 -7.464,-5.898 -18.465,-9.439 -32.602,-9.439 -14.145,0 -25.536,3.541 -32.611,9.439 -7.07,5.899 -11.001,15.343 -11.001,26.75 v 59"
           style="fill:#231f20;fill-opacity:1;fill-rule:evenodd;stroke:none"
           id="path18" />
        <path
           d="m 326.661,241.78 v 93.616 h 28.285 l 25.928,-43.657 c 0.789,-1.183 1.968,-2.757 2.752,-5.114 0.784,-1.968 1.963,-5.114 3.142,-8.266 0,1.184 -0.39,3.546 -0.39,5.115 0,2.362 -0.395,4.719 -0.395,7.476 v 44.446 h 28.286 V 241.78 h -28.286 l -26.712,42.877 c -0.394,1.573 -1.967,3.147 -2.756,5.509 -0.78,1.963 -1.958,5.114 -2.747,7.861 0,-1.178 0.789,-3.536 0.789,-4.719 0,-1.963 0.389,-4.72 0.389,-7.867 V 241.78 h -28.285"
           style="fill:#231f20;fill-opacity:1;fill-rule:evenodd;stroke:none"
           id="path20" />
        <path
           d="m 433.128,335.396 h 29.464 v -93.615 h -29.464 z"
           style="fill:#231f20;fill-opacity:1;fill-rule:evenodd;stroke:none"
           id="path22" />
        <path
           d="m 472.411,241.78 32.606,48.386 -29.07,45.23 h 33.395 l 12.961,-23.599 13.751,23.599 h 33.394 l -30.647,-45.23 31.821,-48.386 h -34.568 l -14.146,25.177 -14.139,-25.177 z"
           style="fill:#231f20;fill-opacity:1;fill-rule:evenodd;stroke:none"
           id="path24" />
        <path
           d="m 596.554,339.726 h -1.179 v -6.293 h 1.573 c 1.175,0 2.353,0 3.142,0.394 0.39,0.39 0.785,1.569 0.785,2.752 0,0.395 -0.395,1.573 -0.785,1.963 -0.789,0.789 -2.361,1.184 -3.536,1.184 m 1.175,4.719 c 3.541,0 6.681,-0.394 8.65,-1.963 1.958,-1.578 3.137,-3.545 3.137,-5.508 0,-1.968 -0.785,-3.541 -1.574,-4.72 -0.389,-1.184 -2.352,-2.362 -3.926,-2.362 l 5.894,-11.408 h -9.43 l -4.321,9.834 h -0.784 v -9.834 h -8.646 v 25.961 z m 18.859,-13.375 c 0,2.363 -0.789,5.115 -1.568,7.082 -0.79,2.358 -2.752,4.72 -3.931,6.293 -1.963,1.574 -3.931,3.152 -6.284,3.931 -1.967,1.184 -4.715,1.968 -7.467,1.968 -2.752,0 -5.105,-0.784 -7.467,-1.573 -1.958,-0.79 -4.32,-2.358 -5.893,-4.326 -1.569,-1.573 -3.532,-3.935 -4.321,-6.293 -0.779,-1.967 -1.174,-4.719 -1.174,-7.082 0,-2.357 0.395,-5.114 1.174,-7.471 0.789,-1.968 2.752,-4.72 3.936,-6.293 1.958,-1.578 4.32,-3.147 6.278,-3.936 2.362,-0.784 5.109,-1.573 7.467,-1.573 2.357,0 5.105,0.789 7.072,1.573 2.354,0.789 4.716,2.358 6.679,4.33 1.568,1.179 3.536,3.536 3.931,5.504 0.779,2.358 1.568,5.114 1.568,7.866 m -19.25,23.998 c 3.142,0 6.283,-0.394 9.041,-1.578 2.747,-1.568 5.889,-3.146 8.246,-5.509 1.963,-1.962 3.536,-4.714 4.715,-7.471 1.568,-3.142 2.352,-6.683 2.352,-9.834 0,-2.752 -0.784,-5.899 -1.958,-8.651 -1.573,-3.146 -3.146,-5.903 -5.109,-7.866 -2.357,-2.362 -5.109,-4.325 -7.861,-5.509 -2.748,-0.789 -6.284,-1.573 -9.816,-1.573 -2.752,0 -5.893,0.784 -8.645,1.573 -2.752,1.184 -5.894,3.147 -7.857,5.509 -1.963,1.963 -4.325,4.72 -5.109,7.472 -1.174,2.757 -1.963,6.293 -1.963,9.045 0,3.151 0.789,6.298 1.963,9.444 0.784,2.752 3.146,5.899 5.109,7.861 1.963,2.363 4.715,4.335 7.467,5.509 2.747,1.184 5.889,1.578 9.035,1.578 h 0.39"
           style="fill:#231f20;fill-opacity:1;fill-rule:evenodd;stroke:none"
           id="path26" />
      </g>
    </g>
  </g>
</svg>
